<svg width="47" height="27" viewBox="0 0 47 27" fill="none" xmlns="http://www.w3.org/2000/svg">
<path d="M25.5008 4.50517C25.5008 4.10734 25.6588 3.72581 25.9401 3.44451C26.2214 3.1632 26.6029 3.00517 27.0008 3.00517H45.0008C45.3986 3.00517 45.7801 3.1632 46.0614 3.44451C46.3427 3.72581 46.5008 4.10734 46.5008 4.50517C46.5008 4.90299 46.3427 5.28452 46.0614 5.56583C45.7801 5.84713 45.3986 6.00517 45.0008 6.00517H27.0008C26.6029 6.00517 26.2214 5.84713 25.9401 5.56583C25.6588 5.28452 25.5008 4.90299 25.5008 4.50517ZM45.0008 12.0052H27.0008C26.6029 12.0052 26.2214 12.1632 25.9401 12.4445C25.6588 12.7258 25.5008 13.1073 25.5008 13.5052C25.5008 13.903 25.6588 14.2845 25.9401 14.5658C26.2214 14.8471 26.6029 15.0052 27.0008 15.0052H45.0008C45.3986 15.0052 45.7801 14.8471 46.0614 14.5658C46.3427 14.2845 46.5008 13.903 46.5008 13.5052C46.5008 13.1073 46.3427 12.7258 46.0614 12.4445C45.7801 12.1632 45.3986 12.0052 45.0008 12.0052ZM45.0008 21.0052H31.5008C31.1029 21.0052 30.7214 21.1632 30.4401 21.4445C30.1588 21.7258 30.0008 22.1073 30.0008 22.5052C30.0008 22.903 30.1588 23.2845 30.4401 23.5658C30.7214 23.8471 31.1029 24.0052 31.5008 24.0052H45.0008C45.3986 24.0052 45.7801 23.8471 46.0614 23.5658C46.3427 23.2845 46.5008 22.903 46.5008 22.5052C46.5008 22.1073 46.3427 21.7258 46.0614 21.4445C45.7801 21.1632 45.3986 21.0052 45.0008 21.0052ZM18.9926 16.1302C20.4813 14.9835 21.5738 13.3997 22.1168 11.6008C22.6598 9.80185 22.6261 7.87808 22.0205 6.09927C21.4148 4.32046 20.2676 2.77582 18.7397 1.68199C17.2118 0.588159 15.3798 0 13.5008 0C11.6217 0 9.78971 0.588159 8.2618 1.68199C6.73389 2.77582 5.58667 4.32046 4.98103 6.09927C4.37539 7.87808 4.34172 9.80185 4.88473 11.6008C5.42773 13.3997 6.52019 14.9835 8.00888 16.1302C4.14263 17.767 1.09576 21.0614 0.0476313 25.1302C-0.00961636 25.3519 -0.015341 25.5838 0.0308961 25.808C0.0771331 26.0323 0.174104 26.243 0.314377 26.424C0.45465 26.605 0.634501 26.7515 0.840145 26.8522C1.04579 26.953 1.27177 27.0053 1.50076 27.0052H25.5008C25.7297 27.0053 25.9557 26.953 26.1614 26.8522C26.367 26.7515 26.5469 26.605 26.6871 26.424C26.8274 26.243 26.9244 26.0323 26.9706 25.808C27.0169 25.5838 27.0111 25.3519 26.9539 25.1302C25.9058 21.0595 22.8589 17.7652 18.9926 16.1302Z" fill="#1D1E1C"/>
</svg>
