<svg width="45" height="36" viewBox="0 0 45 36" fill="none" xmlns="http://www.w3.org/2000/svg">
<path d="M40.3537 15.707C40.4509 16.4688 40.4997 17.2359 40.5 18.0039C40.5028 21.3672 39.5625 24.6639 37.7859 27.5197C36.0094 30.3755 33.4677 32.676 30.4495 34.16C27.4313 35.644 24.0575 36.2521 20.7111 35.9152C17.3647 35.5782 14.1799 34.3098 11.5181 32.2538C16.2412 31.0988 21.7968 28.7045 26.9756 25.7288C32.4956 22.5582 37.155 19.0276 40.3537 15.707ZM44.4581 5.38135C43.0237 2.90823 39.2381 2.35135 33.4893 3.7576C30.8279 1.69968 27.6426 0.429432 24.2954 0.091162C20.9481 -0.247108 17.5731 0.360159 14.5537 1.84398C11.5343 3.3278 8.99161 5.62868 7.21441 8.48525C5.43722 11.3418 4.49679 14.6396 4.49996 18.0039C4.5002 18.7755 4.54904 19.5464 4.64621 20.312C-0.545664 25.6914 -0.470664 28.8789 0.543711 30.6264C1.49996 32.2839 3.49496 33.0038 6.11996 33.0038C7.9425 32.9661 9.7543 32.7144 11.5181 32.2538C10.551 31.5062 9.66148 30.6632 8.86309 29.7376C5.62121 30.2776 3.61309 29.9251 3.13871 29.1207C2.86496 28.6501 3.01684 27.7632 3.55496 26.6832C4.08704 25.6717 4.7338 24.7249 5.48246 23.8614C5.48334 23.8558 5.48334 23.8501 5.48246 23.8445V23.8595C6.22658 26.0125 7.37177 28.0051 8.85746 29.732C12.7837 29.0776 18.5118 27.1239 25.4756 23.1226C30.75 20.102 36.375 15.8795 39.5231 12.1576C38.7818 10.0016 37.6363 8.00662 36.1481 6.27948L36.1237 6.25135C36.1237 6.26073 36.1406 6.26823 36.1481 6.27948C38.8125 5.83885 41.28 5.8726 41.8668 6.88698C42.0393 7.18135 42.0543 7.62198 41.895 8.19948C41.5781 9.3826 40.7343 10.7364 39.5268 12.1614C39.9239 13.3131 40.2022 14.5024 40.3575 15.7107C42.7012 13.2732 44.2612 10.9576 44.7918 8.97573C45.1556 7.59948 45.045 6.39198 44.4581 5.38135Z" fill="#1D1E1C"/>
</svg>
